<svg xmlns="http://www.w3.org/2000/svg" xmlns:xlink="http://www.w3.org/1999/xlink" xmlns:inkscape="http://www.inkscape.org/namespaces/inkscape" version="1.1" width="194.15" height="158.324" viewBox="0 0 194.15 158.324">
<text xml:space="preserve" transform="matrix(1 0 -0 1 .0000009536743 158.324)" font-size="9.9626" font-family="CMMI10" font-style="italic"><tspan y="-146.58" x="11.058">N</tspan></text>
<text xml:space="preserve" transform="matrix(1 0 -0 1 .0000009536743 158.324)" font-size="6.9738" font-family="CMSY7" font-style="italic"><tspan y="-145.085" x="19.063">&#x25e6;</tspan></text>
<text xml:space="preserve" transform="matrix(1 0 -0 1 0 158.324)" font-size="9.9626" font-family="CMSY10" font-style="italic"><tspan y="-146.58" x="93.879">&#x25e6;</tspan></text>
<text xml:space="preserve" transform="matrix(1 0 -0 1 0 158.324)" font-size="9.9626" font-family="CMMI10" font-style="italic"><tspan y="-146.58" x="168.971">M</tspan></text>
<text xml:space="preserve" transform="matrix(1 0 -0 1 0 158.324)" font-size="6.9738" font-family="CMSY7" font-style="italic"><tspan y="-145.085" x="178.637">&#x25e6;</tspan></text>
<text xml:space="preserve" transform="matrix(1 0 -0 1 -.000009536743 158.324)" font-size="9.9626" font-family="CMMI10" font-style="italic"><tspan y="-95.12" x="7.031">M</tspan></text>
<text xml:space="preserve" transform="matrix(1 0 -0 1 -.000009536743 158.324)" font-size="6.9738" font-family="CMMI7" font-style="italic"><tspan y="-93.625" x="16.696">N</tspan></text>
<text xml:space="preserve" transform="matrix(1 0 -0 1 -.000009536743 158.324)" font-size="4.9813" font-family="CMSY5" font-style="italic"><tspan y="-92.629" x="23.005999">&#x25e6;</tspan></text>
<text xml:space="preserve" transform="matrix(1 0 -0 1 -.000015258789 158.324)" font-size="9.9626" font-family="CMMI10" font-style="italic"><tspan y="-95.12" x="165.962">N</tspan></text>
<text xml:space="preserve" transform="matrix(1 0 -0 1 -.000015258789 158.324)" font-size="6.9738" font-family="CMMI7" font-style="italic"><tspan y="-93.625" x="173.966">M</tspan></text>
<text xml:space="preserve" transform="matrix(1 0 -0 1 -.000015258789 158.324)" font-size="4.9813" font-family="CMSY5" font-style="italic"><tspan y="-92.629" x="181.563">&#x25e6;</tspan></text>
<text xml:space="preserve" transform="matrix(1 0 -0 1 -.000009059906 158.324)" font-size="9.9626" font-family="CMMI10" font-style="italic"><tspan y="-42.664" x="4.289">N</tspan></text>
<text xml:space="preserve" transform="matrix(1 0 -0 1 -.000009059906 158.324)" font-size="6.9738" font-family="CMMI7" font-style="italic"><tspan y="-41.169004" x="12.294001">M</tspan></text>
<text xml:space="preserve" transform="matrix(1 0 -0 1 -.000009059906 158.324)" font-size="4.9813" font-family="CMMI5" font-style="italic"><tspan y="-40.167005" x="19.891">N</tspan></text>
<text xml:space="preserve" transform="matrix(1 0 -0 1 -.000009059906 158.324)" font-size="4.9813" font-family="CMSY5" font-style="italic"><tspan y="-39.171007" x="25.25">&#x25e6;</tspan></text>
<text xml:space="preserve" transform="matrix(1 0 -0 1 -.000015258789 158.324)" font-size="9.9626" font-family="CMMI10" font-style="italic"><tspan y="-42.664" x="162.328">M</tspan></text>
<text xml:space="preserve" transform="matrix(1 0 -0 1 -.000015258789 158.324)" font-size="6.9738" font-family="CMMI7" font-style="italic"><tspan y="-41.169004" x="171.993">N</tspan></text>
<text xml:space="preserve" transform="matrix(1 0 -0 1 -.000015258789 158.324)" font-size="4.9813" font-family="CMMI5" font-style="italic"><tspan y="-40.167005" x="178.303">M</tspan></text>
<text xml:space="preserve" transform="matrix(1 0 -0 1 -.000015258789 158.324)" font-size="4.9813" font-family="CMSY5" font-style="italic"><tspan y="-39.171007" x="184.69899">&#x25e6;</tspan></text>
<text xml:space="preserve" transform="matrix(1 0 -0 1 -.000015258789 158.324)" font-size="9.9626" font-family="CMMI10" font-style="italic"><tspan y="-7.139" x="62.9">N</tspan></text>
<text xml:space="preserve" transform="matrix(1 0 -0 1 -.000015258789 158.324)" font-size="6.9738" font-family="CMMI7" font-style="italic"><tspan y="-5.644" x="70.905">M</tspan></text>
<text xml:space="preserve" transform="matrix(1 0 -0 1 -.000015258789 158.324)" font-size="4.9813" font-family="CMMI5" font-style="italic"><tspan y="-4.642" x="78.502">N</tspan></text>
<text xml:space="preserve" transform="matrix(1 0 -0 1 -.000015258789 158.324)" font-size="4.9813" font-family="CMSY5" font-style="italic"><tspan y="-3.6460002" x="83.861">&#x25e6;</tspan></text>
<text xml:space="preserve" transform="matrix(1 0 -0 1 -.000015258789 158.324)" font-size="9.9626" font-family="CMR10"><tspan y="-7.139" x="91.789">=</tspan></text>
<text xml:space="preserve" transform="matrix(1 0 -0 1 -.000015258789 158.324)" font-size="9.9626" font-family="CMMI10" font-style="italic"><tspan y="-7.139" x="102.305">M</tspan></text>
<text xml:space="preserve" transform="matrix(1 0 -0 1 -.000015258789 158.324)" font-size="6.9738" font-family="CMMI7" font-style="italic"><tspan y="-5.644" x="111.97">N</tspan></text>
<text xml:space="preserve" transform="matrix(1 0 -0 1 -.000015258789 158.324)" font-size="4.9813" font-family="CMMI5" font-style="italic"><tspan y="-4.642" x="118.281">M</tspan></text>
<text xml:space="preserve" transform="matrix(1 0 -0 1 -.000015258789 158.324)" font-size="4.9813" font-family="CMSY5" font-style="italic"><tspan y="-3.6460002" x="124.677">&#x25e6;</tspan></text>
<path transform="matrix(1,0,0,-1,97.075,79.80701)" stroke-width=".39848" stroke-linecap="butt" stroke-miterlimit="10" stroke-linejoin="miter" fill="none" stroke="#000000" d="M-79.72577 62.32553V27.65492"/>
<path transform="matrix(0,-1,-1,-0,17.349228,17.282238)" stroke-width=".39848" stroke-linecap="round" stroke-linejoin="round" fill="none" stroke="#000000" d="M-2.07213 2.39091C-1.69356 .95633-.84995 .27893 0 0-.84995-.27893-1.69356-.95633-2.07213-2.39091"/>
<path transform="matrix(0,1,1,0,17.349228,52.35132)" stroke-width=".39848" stroke-linecap="round" stroke-linejoin="round" fill="none" stroke="#000000" d="M-2.07213 2.39091C-1.69356 .95633-.84995 .27893 0 0-.84995-.27893-1.69356-.95633-2.07213-2.39091"/>
<text xml:space="preserve" transform="matrix(1 0 -0 1 -.0000042915346 158.324)" font-size="6.9738" font-family="CMMI7" font-style="italic"><tspan y="-121.124" x="6.661">M</tspan></text>
<path transform="matrix(1,0,0,-1,97.075,79.80701)" stroke-width=".39848" stroke-linecap="butt" stroke-miterlimit="10" stroke-linejoin="miter" fill="none" stroke="#000000" d="M-8.08363 70.55444H-68.54608"/>
<path transform="matrix(1,0,0,-1,89.1906,9.252563)" stroke-width=".39848" stroke-linecap="round" stroke-linejoin="round" fill="none" stroke="#000000" d="M-2.07213 2.39091C-1.69356 .95633-.84995 .27893 0 0-.84995-.27893-1.69356-.95633-2.07213-2.39091"/>
<path transform="matrix(-1,-0,0,1,28.329674,9.252563)" stroke-width=".39848" stroke-linecap="round" stroke-linejoin="round" fill="none" stroke="#000000" d="M-2.07213 2.39091C-1.69356 .95633-.84995 .27893 0 0-.84995-.27893-1.69356-.95633-2.07213-2.39091"/>
<text xml:space="preserve" transform="matrix(1 0 -0 1 -.0000038146974 158.324)" font-size="6.9738" font-family="CMMI7" font-style="italic"><tspan y="-151.414" x="55.231">N</tspan></text>
<path transform="matrix(1,0,0,-1,97.075,79.80701)" stroke-width=".39848" stroke-linecap="butt" stroke-miterlimit="10" stroke-linejoin="miter" fill="none" stroke="#000000" d="M6.67221 70.55444H67.01013"/>
<path transform="matrix(-1,-0,0,1,103.54797,9.252563)" stroke-width=".39848" stroke-linecap="round" stroke-linejoin="round" fill="none" stroke="#000000" d="M-2.07213 2.39091C-1.69356 .95633-.84995 .27893 0 0-.84995-.27893-1.69356-.95633-2.07213-2.39091"/>
<path transform="matrix(1,0,0,-1,164.28437,9.252563)" stroke-width=".39848" stroke-linecap="round" stroke-linejoin="round" fill="none" stroke="#000000" d="M-2.07213 2.39091C-1.69356 .95633-.84995 .27893 0 0-.84995-.27893-1.69356-.95633-2.07213-2.39091"/>
<text xml:space="preserve" transform="matrix(1 0 -0 1 0 158.324)" font-size="6.9738" font-family="CMMI7" font-style="italic"><tspan y="-151.414" x="129.743">M</tspan></text>
<path transform="matrix(1,0,0,-1,97.075,79.80701)" stroke-width=".39848" stroke-linecap="butt" stroke-miterlimit="10" stroke-linejoin="miter" fill="none" stroke="#000000" d="M79.02007 62.32553V27.65492"/>
<path transform="matrix(0,-1,-1,-0,176.09506,17.282238)" stroke-width=".39848" stroke-linecap="round" stroke-linejoin="round" fill="none" stroke="#000000" d="M-2.07213 2.39091C-1.69356 .95633-.84995 .27893 0 0-.84995-.27893-1.69356-.95633-2.07213-2.39091"/>
<path transform="matrix(0,1,1,0,176.09506,52.35132)" stroke-width=".39848" stroke-linecap="round" stroke-linejoin="round" fill="none" stroke="#000000" d="M-2.07213 2.39091C-1.69356 .95633-.84995 .27893 0 0-.84995-.27893-1.69356-.95633-2.07213-2.39091"/>
<text xml:space="preserve" transform="matrix(1 0 -0 1 -.000015258789 158.324)" font-size="6.9738" font-family="CMMI7" font-style="italic"><tspan y="-121.124" x="178.438">N</tspan></text>
<path transform="matrix(1,0,0,-1,97.075,79.80701)" stroke-width=".39848" stroke-linecap="butt" stroke-miterlimit="10" stroke-linejoin="miter" fill="none" stroke="#000000" d="M-79.72577 9.86874V-24.80185"/>
<path transform="matrix(0,-1,-1,-0,17.349228,69.73903)" stroke-width=".39848" stroke-linecap="round" stroke-linejoin="round" fill="none" stroke="#000000" d="M-2.07213 2.39091C-1.69356 .95633-.84995 .27893 0 0-.84995-.27893-1.69356-.95633-2.07213-2.39091"/>
<path transform="matrix(0,1,1,0,17.349228,104.80809)" stroke-width=".39848" stroke-linecap="round" stroke-linejoin="round" fill="none" stroke="#000000" d="M-2.07213 2.39091C-1.69356 .95633-.84995 .27893 0 0-.84995-.27893-1.69356-.95633-2.07213-2.39091"/>
<text xml:space="preserve" transform="matrix(1 0 -0 1 -.0000019073487 158.324)" font-size="6.9738" font-family="CMMI7" font-style="italic"><tspan y="-68.668" x="7.948">N</tspan></text>
<path transform="matrix(1,0,0,-1,97.075,79.80701)" stroke-width=".39848" stroke-linecap="butt" stroke-miterlimit="10" stroke-linejoin="miter" fill="none" stroke="#000000" d="M79.02007 9.86874V-24.80185"/>
<path transform="matrix(0,-1,-1,-0,176.09506,69.73903)" stroke-width=".39848" stroke-linecap="round" stroke-linejoin="round" fill="none" stroke="#000000" d="M-2.07213 2.39091C-1.69356 .95633-.84995 .27893 0 0-.84995-.27893-1.69356-.95633-2.07213-2.39091"/>
<path transform="matrix(0,1,1,0,176.09506,104.80809)" stroke-width=".39848" stroke-linecap="round" stroke-linejoin="round" fill="none" stroke="#000000" d="M-2.07213 2.39091C-1.69356 .95633-.84995 .27893 0 0-.84995-.27893-1.69356-.95633-2.07213-2.39091"/>
<text xml:space="preserve" transform="matrix(1 0 -0 1 -.000015258789 158.324)" font-size="6.9738" font-family="CMMI7" font-style="italic"><tspan y="-68.668" x="178.438">M</tspan></text>
<path transform="matrix(1,0,0,-1,97.075,79.80701)" stroke-width=".39848" stroke-linecap="butt" stroke-miterlimit="10" stroke-linejoin="miter" fill="none" stroke="#000000" d="M-61.81262-41.41046-19.21634-60.56252"/>
<path transform="matrix(-.912,-.41005,-.41005,.912,35.080678,121.13577)" stroke-width=".39848" stroke-linecap="round" stroke-linejoin="round" fill="none" stroke="#000000" d="M-2.07213 2.39091C-1.69356 .95633-.84995 .27893 0 0-.84995-.27893-1.69356-.95633-2.07213-2.39091"/>
<path transform="matrix(.912,.41005,.41005,-.912,78.04036,140.45122)" stroke-width=".39848" stroke-linecap="round" stroke-linejoin="round" fill="none" stroke="#000000" d="M-2.07213 2.39091C-1.69356 .95633-.84995 .27893 0 0-.84995-.27893-1.69356-.95633-2.07213-2.39091"/>
<text xml:space="preserve" transform="matrix(1 0 -0 1 -.0000038146974 158.324)" font-size="6.9738" font-family="CMMI7" font-style="italic"><tspan y="-20.422" x="45.872">M</tspan></text>
<path transform="matrix(1,0,0,-1,97.075,79.80701)" stroke-width=".39848" stroke-linecap="butt" stroke-miterlimit="10" stroke-linejoin="miter" fill="none" stroke="#000000" d="M60.40065-41.65746 17.96753-60.56375"/>
<path transform="matrix(.9134,-.40698,-.40698,-.9134,157.65763,121.38339)" stroke-width=".39848" stroke-linecap="round" stroke-linejoin="round" fill="none" stroke="#000000" d="M-2.07213 2.39091C-1.69356 .95633-.84995 .27893 0 0-.84995-.27893-1.69356-.95633-2.07213-2.39091"/>
<path transform="matrix(-.9134,.40698,.40698,.9134,114.86055,140.45183)" stroke-width=".39848" stroke-linecap="round" stroke-linejoin="round" fill="none" stroke="#000000" d="M-2.07213 2.39091C-1.69356 .95633-.84995 .27893 0 0-.84995-.27893-1.69356-.95633-2.07213-2.39091"/>
<text xml:space="preserve" transform="matrix(1 0 -0 1 0 158.324)" font-size="6.9738" font-family="CMMI7" font-style="italic"><tspan y="-20.297" x="138.603">N</tspan></text>
</svg>
